# xmcd
#
# Track frame offsets:
#	150
#	21302
#	35646
#	47555
#	62440
#	75181
#	88737
#	104350
#	112701
#	123781
#	138193
#
# Disc length: 2019 seconds
#
# Revision: 1
# Processed by: cddbd v1.5.1PL0 Copyright (c) Steve Scherf et al.
# Submitted via: EasyCDDAExtractor 5.0.6
#
DISCID=7b07e10b
DTITLE=Pasion de Gavilanes - Soundtrack
DYEAR=2005
DGENRE=
TTITLE0=Por que es tan cruel el Amor
TTITLE1=Fiera Inquieta
TTITLE2=Sobre Fuego
TTITLE3=Paloma
TTITLE4=Regaee Cumbia
TTITLE5=Miedo al Amor
TTITLE6=Ya no te quiero
TTITLE7=Dulce pesadilla
TTITLE8=Vete
TTITLE9=Fiera Inquieta
TTITLE10=Quien es ese hombre
EXTD=
EXTT0=
EXTT1=
EXTT2=
EXTT3=
EXTT4=
EXTT5=
EXTT6=
EXTT7=
EXTT8=
EXTT9=
EXTT10=
PLAYORDER=
